# xmcd
#
# Track frame offsets: 
#        150
#        16500
#        45075
#        63525
#        78000
#        93225
#        115800
#        134700
#        157725
#        189750
#        205200
#        222375
#        247950
#        274800
#
# Disc length: 4027 seconds
#
# Revision: 2
# Processed by: cddbd v1.5.2PL0 Copyright (c) Steve Scherf et al.
# Submitted via: ExactAudioCopyFreeDBPlugin 1.0
#
DISCID=ab0fb90e
DTITLE=Eric Steckel - High Action
DYEAR=2005
DGENRE=Blues
TTITLE0=Funky C Funky Do
TTITLE1=Slow Train
TTITLE2=Espirita
TTITLE3=Hey Sister
TTITLE4=Char-Broiled
TTITLE5=Some People Tell Me
TTITLE6=Blues Is A Feelin`
TTITLE7=Oh Yeah!
TTITLE8=Born Under A Bad Sign
TTITLE9=Further On Up The Road
TTITLE10=Lucille
TTITLE11=Never Run From The Rain
TTITLE12=Hideaway
TTITLE13=The Sad Nite Owl
EXTD=
EXTT0=
EXTT1=
EXTT2=
EXTT3=
EXTT4=
EXTT5=
EXTT6=
EXTT7=
EXTT8=
EXTT9=
EXTT10=
EXTT11=
EXTT12=
EXTT13=
PLAYORDER=
